<svg xmlns="http://www.w3.org/2000/svg" viewBox="0 0 800 420"><defs><linearGradient id="g" x1="0" y1="0" x2="1" y2="1"><stop stop-color="#0B2135"/><stop offset="1" stop-color="#356C88"/></linearGradient></defs><rect width="800" height="420" fill="url(#g)"/><g fill="none" stroke="#C6A15B" stroke-width="9"><path d="M110 105c100-40 185-22 290 42v215c-105-64-190-82-290-42zM690 105c-100-40-185-22-290 42v215c105-64 190-82 290-42z"/><path d="M400 147v215"/><path d="M160 175c70-18 128-7 190 28M160 230c70-18 128-7 190 28M640 175c-70-18-128-7-190 28M640 230c-70-18-128-7-190 28" opacity=".75"/></g></svg>
