<svg xmlns="http://www.w3.org/2000/svg" viewBox="0 0 800 420"><defs><linearGradient id="g" x1="0" y1="0" x2="1" y2="1"><stop stop-color="#102A43"/><stop offset="1" stop-color="#346A87"/></linearGradient></defs><rect width="800" height="420" fill="url(#g)"/><g fill="none" stroke="#E0B95F" stroke-width="8"><path d="M90 85v270M275 85v270M525 85v270M710 85v270"/><path d="M90 115h185M90 200h185M90 285h185M525 115h185M525 200h185M525 285h185"/></g><g fill="#fff" opacity=".22"><rect x="115" y="132" width="60" height="48"/><rect x="185" y="132" width="64" height="48"/><rect x="115" y="217" width="85" height="48"/><rect x="210" y="217" width="39" height="48"/><rect x="550" y="132" width="60" height="48"/><rect x="620" y="132" width="64" height="48"/><rect x="550" y="217" width="90" height="48"/><rect x="650" y="217" width="34" height="48"/></g><path d="M400 355V75" stroke="#fff" stroke-width="4" opacity=".45"/></svg>
